/* XPM */
static char * door_xpm[] = {
"64 64 5 1",
"  c #4A3B2A",
". c #8B5A2B",
"X c #FFD700",
"+ c #694321",
"E c #000000",
"                                                                ",
"                                                                ",
"  ........+.........+.........+.........+.........+.........+.  ",
"  ........+.........+.........+.........+.........+.........+.  ",
"  ........+.........+.........+.........+.........+.........+.  ",
"  ........+.........+.........+.........+.........+.........+.  ",
"  ........+.........+.........+.........+.........+.........+.  ",
"  ........+.........+.........+.........+.........+.........+.  ",
"  ........+.........+.........+.........+.........+.........+.  ",
"  ........+.........+.........+.........+.........+.........+.  ",
"  ........+.........+.........+.........+.........+.........+.  ",
"  ........+.........+.........+.........+.........+.........+.  ",
"  ........+.........+.........+.........+.........+.........+.  ",
"  ........+.........+.........+.........+.........+.........+.  ",
"  ........+.........+.........+.........+.........+.........+.  ",
"  ........+.........+.........+.........+.........+.........+.  ",
"  ........+.........+.........+.........+.........+.........+.  ",
"  ........+.........+.........+.........+.........+.........+.  ",
"  ........+.........+.........+.........+.........+.........+.  ",
"  ........+.........+.........+.........+.........+.........+.  ",
"  ........+.........+.........+.........+.........+.........+.  ",
"  ........+.........+.........+.........+.........+.........+.  ",
"  ........+.........+.........+.........+.........+.........+.  ",
"  ........+.........+.........+.........+.........+.........+.  ",
"  ........+.........+.........+.........+.........+.........+.  ",
"  ........+.........+.........+.........+.........+.........+.  ",
"  ........+.........+.........+.........+.........+.........+.  ",
"  ........+.........+.........+.........+.........+.........+.  ",
"  ........+.........+.........+.........+.........+.........+.  ",
"  ........+.........+.........+.........+.........+.........+.  ",
"  ........+.........+.........+.........+....XXXXXXXXXXX....+.  ",
"  ........+.........+.........+.........+....XXXXXXXXXXX....+.  ",
"  ........+.........+.........+.........+....XXXXXXXXXXX....+.  ",
"  ........+.........+.........+.........+....XXXEEEEEXXX....+.  ",
"  ........+.........+.........+.........+....XXXXXXXEXXX....+.  ",
"  ........+.........+.........+.........+....XXXXXXXEXXX....+.  ",
"  ........+.........+.........+.........+....XXXEEEEEXXX....+.  ",
"  ........+.........+.........+.........+....XXXXXXXEXXX....+.  ",
"  ........+.........+.........+.........+....XXXXXXXEXXX....+.  ",
"  ........+.........+.........+.........+....XXXEEEEEXXX....+.  ",
"  ........+.........+.........+.........+....XXXXXXXXXXX....+.  ",
"  ........+.........+.........+.........+....XXXXXXXXXXX....+.  ",
"  ........+.........+.........+.........+....XXXXXXXXXXX....+.  ",
"  ........+.........+.........+.........+.........+.........+.  ",
"  ........+.........+.........+.........+.........+.........+.  ",
"  ........+.........+.........+.........+.........+.........+.  ",
"  ........+.........+.........+.........+.........+.........+.  ",
"  ........+.........+.........+.........+.........+.........+.  ",
"  ........+.........+.........+.........+.........+.........+.  ",
"  ........+.........+.........+.........+.........+.........+.  ",
"  ........+.........+.........+.........+.........+.........+.  ",
"  ........+.........+.........+.........+.........+.........+.  ",
"  ........+.........+.........+.........+.........+.........+.  ",
"  ........+.........+.........+.........+.........+.........+.  ",
"  ........+.........+.........+.........+.........+.........+.  ",
"  ........+.........+.........+.........+.........+.........+.  ",
"  ........+.........+.........+.........+.........+.........+.  ",
"  ........+.........+.........+.........+.........+.........+.  ",
"  ........+.........+.........+.........+.........+.........+.  ",
"  ........+.........+.........+.........+.........+.........+.  ",
"  ........+.........+.........+.........+.........+.........+.  ",
"  ........+.........+.........+.........+.........+.........+.  ",
"                                                                ",
"                                                                ",
};