/* XPM */
static char * south_xpm[] = {
"64 64 2 1",
"  c #333333",
". c #AD6B6B",
" ............................... ...............................",
" ............................... ...............................",
" ............................... ...............................",
" ............................... ...............................",
" ............................... ...............................",
" ............................... ...............................",
" ............................... ...............................",
" ............................... ...............................",
" ............................... ...............................",
" ............................... ...............................",
" ............................... ...............................",
" ............................... ...............................",
" ............................... ...............................",
" ............................... ...............................",
" ............................... ...............................",
"                                                                ",
"................ ............................... ...............",
"................ ............................... ...............",
"................ ............................... ...............",
"................ ............................... ...............",
"................ ............................... ...............",
"................ ............................... ...............",
"................ ............................... ...............",
"................ ............................... ...............",
"................ ............................... ...............",
"................ ............................... ...............",
"................ ............................... ...............",
"................ ............................... ...............",
"................ ............................... ...............",
"................ ............................... ...............",
"................ ............................... ...............",
"                                                                ",
" ............................... ...............................",
" ............................... ...............................",
" ............................... ...............................",
" ............................... ...............................",
" ............................... ...............................",
" ............................... ...............................",
" ............................... ...............................",
" ............................... ...............................",
" ............................... ...............................",
" ............................... ...............................",
" ............................... ...............................",
" ............................... ...............................",
" ............................... ...............................",
" ............................... ...............................",
" ............................... ...............................",
"                                                                ",
"................ ............................... ...............",
"................ ............................... ...............",
"................ ............................... ...............",
"................ ............................... ...............",
"................ ............................... ...............",
"................ ............................... ...............",
"................ ............................... ...............",
"................ ............................... ...............",
"................ ............................... ...............",
"................ ............................... ...............",
"................ ............................... ...............",
"................ ............................... ...............",
"................ ............................... ...............",
"................ ............................... ...............",
"................ ............................... ...............",
"                                                                ",
};